# storage box
o StorageBox
v -0.3000 0.0000 -0.2250
v -0.3000 0.0000 0.2250
v -0.3000 0.4500 -0.2250
v -0.3000 0.4500 0.2250
v 0.3000 0.0000 -0.2250
v 0.3000 0.0000 0.2250
v 0.3000 0.4500 -0.2250
v 0.3000 0.4500 0.2250
vn -0.5774 -0.5774 -0.5774
vn -0.5774 -0.5774 0.5774
vn -0.5774 0.5774 -0.5774
vn -0.5774 0.5774 0.5774
vn 0.5774 -0.5774 -0.5774
vn 0.5774 -0.5774 0.5774
vn 0.5774 0.5774 -0.5774
vn 0.5774 0.5774 0.5774
vt 0 0
vt 1 0
vt 1 1
vt 0 1
s 1
f 6/1/6 5/2/5 7/3/7 8/4/8
f 1/1/1 2/2/2 4/3/4 3/4/3
f 4/1/4 8/2/8 7/3/7 3/4/3
f 1/1/1 5/2/5 6/3/6 2/4/2
f 2/1/2 6/2/6 8/3/8 4/4/4
f 5/1/5 1/2/1 3/3/3 7/4/7
